<mxfile host="Electron" agent="Mozilla/5.0 (X11; Linux x86_64) AppleWebKit/537.36 (KHTML, like Gecko) draw.io/26.2.15 Chrome/134.0.6998.205 Electron/35.3.0 Safari/537.36" version="26.2.15">
  <diagram name="Page-1" id="h6Vp5SdkJjrs_77YgKnW">
    <mxGraphModel dx="1425" dy="858" grid="1" gridSize="10" guides="1" tooltips="1" connect="1" arrows="1" fold="1" page="1" pageScale="1" pageWidth="850" pageHeight="1100" math="0" shadow="0">
      <root>
        <mxCell id="0" />
        <mxCell id="1" parent="0" />
        <mxCell id="WDUlDcDjNbLZ-0IDUKDN-4" style="edgeStyle=orthogonalEdgeStyle;rounded=0;orthogonalLoop=1;jettySize=auto;html=1;exitX=0.5;exitY=1;exitDx=0;exitDy=0;entryX=0.5;entryY=0;entryDx=0;entryDy=0;" edge="1" parent="1" source="WDUlDcDjNbLZ-0IDUKDN-1" target="WDUlDcDjNbLZ-0IDUKDN-25">
          <mxGeometry relative="1" as="geometry">
            <mxPoint x="340" y="120" as="targetPoint" />
          </mxGeometry>
        </mxCell>
        <mxCell id="WDUlDcDjNbLZ-0IDUKDN-1" value="Create New File&lt;div&gt;#1: Pathes&lt;/div&gt;&lt;div&gt;#2: Filename&lt;/div&gt;" style="shape=hexagon;perimeter=hexagonPerimeter2;whiteSpace=wrap;html=1;fixedSize=1;fontFamily=Courier New;fontSize=14;" vertex="1" parent="1">
          <mxGeometry x="240" width="200" height="80" as="geometry" />
        </mxCell>
        <mxCell id="WDUlDcDjNbLZ-0IDUKDN-5" style="edgeStyle=orthogonalEdgeStyle;rounded=0;orthogonalLoop=1;jettySize=auto;html=1;exitX=1;exitY=0.5;exitDx=0;exitDy=0;" edge="1" parent="1" source="WDUlDcDjNbLZ-0IDUKDN-25" target="WDUlDcDjNbLZ-0IDUKDN-6">
          <mxGeometry relative="1" as="geometry">
            <mxPoint x="640" y="159.9310344827586" as="targetPoint" />
            <mxPoint x="450" y="170" as="sourcePoint" />
          </mxGeometry>
        </mxCell>
        <mxCell id="WDUlDcDjNbLZ-0IDUKDN-13" style="edgeStyle=orthogonalEdgeStyle;rounded=0;orthogonalLoop=1;jettySize=auto;html=1;exitX=0.5;exitY=1;exitDx=0;exitDy=0;entryX=0.5;entryY=0;entryDx=0;entryDy=0;" edge="1" parent="1" source="WDUlDcDjNbLZ-0IDUKDN-25" target="WDUlDcDjNbLZ-0IDUKDN-24">
          <mxGeometry relative="1" as="geometry">
            <mxPoint x="340" y="280" as="targetPoint" />
            <mxPoint x="340" y="200" as="sourcePoint" />
          </mxGeometry>
        </mxCell>
        <mxCell id="WDUlDcDjNbLZ-0IDUKDN-6" value="&lt;div&gt;&lt;font style=&quot;font-size: 14px;&quot;&gt;Return&lt;/font&gt;&lt;/div&gt;E_FileOrDirectoryNotFound" style="shape=parallelogram;perimeter=parallelogramPerimeter;whiteSpace=wrap;html=1;fixedSize=1;fontFamily=Courier New;fontSize=12;" vertex="1" parent="1">
          <mxGeometry x="630" y="120" width="220" height="80" as="geometry" />
        </mxCell>
        <mxCell id="WDUlDcDjNbLZ-0IDUKDN-7" value="IF the pathes is not found" style="text;html=1;align=center;verticalAlign=middle;whiteSpace=wrap;rounded=0;fontFamily=Courier New;fontSize=14;" vertex="1" parent="1">
          <mxGeometry x="470" y="125" width="130" height="30" as="geometry" />
        </mxCell>
        <mxCell id="WDUlDcDjNbLZ-0IDUKDN-23" style="edgeStyle=orthogonalEdgeStyle;rounded=0;orthogonalLoop=1;jettySize=auto;html=1;exitX=1;exitY=1;exitDx=0;exitDy=0;entryX=0.25;entryY=0;entryDx=0;entryDy=0;" edge="1" parent="1" source="WDUlDcDjNbLZ-0IDUKDN-10" target="WDUlDcDjNbLZ-0IDUKDN-20">
          <mxGeometry relative="1" as="geometry">
            <Array as="points">
              <mxPoint x="150" y="240" />
              <mxPoint x="150" y="380" />
              <mxPoint x="290" y="380" />
            </Array>
          </mxGeometry>
        </mxCell>
        <mxCell id="WDUlDcDjNbLZ-0IDUKDN-10" value="ELSEIF the &#39;Pathes&#39; is root directory" style="text;html=1;align=center;verticalAlign=middle;whiteSpace=wrap;rounded=0;fontFamily=Courier New;fontSize=14;" vertex="1" parent="1">
          <mxGeometry x="150" y="210" width="190" height="30" as="geometry" />
        </mxCell>
        <mxCell id="WDUlDcDjNbLZ-0IDUKDN-11" value="@1: &#39;Pathes[-1]&#39; cluster number" style="rounded=0;whiteSpace=wrap;html=1;fontFamily=Courier New;fontSize=14;" vertex="1" parent="1">
          <mxGeometry y="140" width="200" height="40" as="geometry" />
        </mxCell>
        <mxCell id="WDUlDcDjNbLZ-0IDUKDN-12" value="" style="endArrow=classic;html=1;rounded=0;entryX=1;entryY=0.5;entryDx=0;entryDy=0;exitX=0;exitY=0.5;exitDx=0;exitDy=0;" edge="1" parent="1" source="WDUlDcDjNbLZ-0IDUKDN-25" target="WDUlDcDjNbLZ-0IDUKDN-11">
          <mxGeometry width="50" height="50" relative="1" as="geometry">
            <mxPoint x="230" y="140" as="sourcePoint" />
            <mxPoint x="90" y="160" as="targetPoint" />
          </mxGeometry>
        </mxCell>
        <mxCell id="WDUlDcDjNbLZ-0IDUKDN-18" style="edgeStyle=orthogonalEdgeStyle;rounded=0;orthogonalLoop=1;jettySize=auto;html=1;entryX=0;entryY=0.5;entryDx=0;entryDy=0;exitX=1;exitY=0.5;exitDx=0;exitDy=0;" edge="1" parent="1" source="WDUlDcDjNbLZ-0IDUKDN-24" target="WDUlDcDjNbLZ-0IDUKDN-17">
          <mxGeometry relative="1" as="geometry">
            <mxPoint x="450" y="330" as="sourcePoint" />
          </mxGeometry>
        </mxCell>
        <mxCell id="WDUlDcDjNbLZ-0IDUKDN-21" style="edgeStyle=orthogonalEdgeStyle;rounded=0;orthogonalLoop=1;jettySize=auto;html=1;exitX=0.5;exitY=1;exitDx=0;exitDy=0;entryX=0.5;entryY=0;entryDx=0;entryDy=0;" edge="1" parent="1" source="WDUlDcDjNbLZ-0IDUKDN-24" target="WDUlDcDjNbLZ-0IDUKDN-20">
          <mxGeometry relative="1" as="geometry">
            <mxPoint x="340" y="360" as="sourcePoint" />
          </mxGeometry>
        </mxCell>
        <mxCell id="WDUlDcDjNbLZ-0IDUKDN-15" value="ELSE" style="text;html=1;align=left;verticalAlign=middle;whiteSpace=wrap;rounded=0;fontFamily=Courier New;fontSize=14;" vertex="1" parent="1">
          <mxGeometry x="340" y="240" width="50" height="30" as="geometry" />
        </mxCell>
        <mxCell id="WDUlDcDjNbLZ-0IDUKDN-17" value="&lt;div&gt;&lt;font&gt;Return&lt;/font&gt;&lt;/div&gt;&lt;font&gt;E_ThisIsAFile&lt;/font&gt;" style="shape=parallelogram;perimeter=parallelogramPerimeter;whiteSpace=wrap;html=1;fixedSize=1;fontFamily=Courier New;fontSize=14;" vertex="1" parent="1">
          <mxGeometry x="630" y="270" width="220" height="80" as="geometry" />
        </mxCell>
        <mxCell id="WDUlDcDjNbLZ-0IDUKDN-19" value="IF it is not a directory" style="text;html=1;align=center;verticalAlign=middle;whiteSpace=wrap;rounded=0;fontFamily=Courier New;fontSize=14;" vertex="1" parent="1">
          <mxGeometry x="470" y="275" width="130" height="30" as="geometry" />
        </mxCell>
        <mxCell id="WDUlDcDjNbLZ-0IDUKDN-27" style="edgeStyle=orthogonalEdgeStyle;rounded=0;orthogonalLoop=1;jettySize=auto;html=1;exitX=1;exitY=0.5;exitDx=0;exitDy=0;entryX=0;entryY=0.5;entryDx=0;entryDy=0;" edge="1" parent="1" source="WDUlDcDjNbLZ-0IDUKDN-20" target="WDUlDcDjNbLZ-0IDUKDN-26">
          <mxGeometry relative="1" as="geometry" />
        </mxCell>
        <mxCell id="WDUlDcDjNbLZ-0IDUKDN-30" style="edgeStyle=orthogonalEdgeStyle;rounded=0;orthogonalLoop=1;jettySize=auto;html=1;exitX=0.5;exitY=1;exitDx=0;exitDy=0;entryX=0.5;entryY=0;entryDx=0;entryDy=0;" edge="1" parent="1" source="WDUlDcDjNbLZ-0IDUKDN-20" target="WDUlDcDjNbLZ-0IDUKDN-29">
          <mxGeometry relative="1" as="geometry" />
        </mxCell>
        <mxCell id="WDUlDcDjNbLZ-0IDUKDN-20" value="Search the &#39;Filename&#39; in cluster chain of &#39;@1&#39;" style="rounded=1;whiteSpace=wrap;html=1;fontFamily=Courier New;fontSize=13;" vertex="1" parent="1">
          <mxGeometry x="240" y="400" width="200" height="60" as="geometry" />
        </mxCell>
        <mxCell id="WDUlDcDjNbLZ-0IDUKDN-22" value="ELSE" style="text;html=1;align=left;verticalAlign=middle;whiteSpace=wrap;rounded=0;fontFamily=Courier New;fontSize=14;" vertex="1" parent="1">
          <mxGeometry x="340" y="360" width="50" height="30" as="geometry" />
        </mxCell>
        <mxCell id="WDUlDcDjNbLZ-0IDUKDN-24" value="&lt;span style=&quot;font-size: 14px;&quot;&gt;Check type of&lt;/span&gt;&lt;div style=&quot;font-size: 14px;&quot;&gt;&#39;Pathes[-1]&#39;&lt;/div&gt;" style="rounded=1;whiteSpace=wrap;html=1;fontFamily=Courier New;fontSize=13;" vertex="1" parent="1">
          <mxGeometry x="240" y="280" width="200" height="60" as="geometry" />
        </mxCell>
        <mxCell id="WDUlDcDjNbLZ-0IDUKDN-25" value="&lt;span style=&quot;font-size: 14px;&quot;&gt;Search the &#39;pathes&#39;&lt;/span&gt;" style="rounded=1;whiteSpace=wrap;html=1;fontFamily=Courier New;fontSize=13;" vertex="1" parent="1">
          <mxGeometry x="240" y="130" width="200" height="60" as="geometry" />
        </mxCell>
        <mxCell id="WDUlDcDjNbLZ-0IDUKDN-26" value="&lt;div&gt;&lt;font&gt;Return&lt;/font&gt;&lt;/div&gt;&lt;font style=&quot;font-size: 12px;&quot;&gt;E_FileOrDirectoryExists&lt;/font&gt;" style="shape=parallelogram;perimeter=parallelogramPerimeter;whiteSpace=wrap;html=1;fixedSize=1;fontFamily=Courier New;fontSize=14;" vertex="1" parent="1">
          <mxGeometry x="630" y="390" width="220" height="80" as="geometry" />
        </mxCell>
        <mxCell id="WDUlDcDjNbLZ-0IDUKDN-28" value="IF the filename has existed" style="text;html=1;align=center;verticalAlign=middle;whiteSpace=wrap;rounded=0;fontFamily=Courier New;fontSize=14;" vertex="1" parent="1">
          <mxGeometry x="470" y="395" width="130" height="30" as="geometry" />
        </mxCell>
        <mxCell id="WDUlDcDjNbLZ-0IDUKDN-33" style="edgeStyle=orthogonalEdgeStyle;rounded=0;orthogonalLoop=1;jettySize=auto;html=1;exitX=0;exitY=0.5;exitDx=0;exitDy=0;entryX=0.5;entryY=0;entryDx=0;entryDy=0;" edge="1" parent="1" source="WDUlDcDjNbLZ-0IDUKDN-29" target="WDUlDcDjNbLZ-0IDUKDN-32">
          <mxGeometry relative="1" as="geometry" />
        </mxCell>
        <mxCell id="WDUlDcDjNbLZ-0IDUKDN-39" style="edgeStyle=orthogonalEdgeStyle;rounded=0;orthogonalLoop=1;jettySize=auto;html=1;exitX=1;exitY=0.5;exitDx=0;exitDy=0;entryX=0.5;entryY=0;entryDx=0;entryDy=0;" edge="1" parent="1" source="WDUlDcDjNbLZ-0IDUKDN-29" target="WDUlDcDjNbLZ-0IDUKDN-38">
          <mxGeometry relative="1" as="geometry" />
        </mxCell>
        <mxCell id="WDUlDcDjNbLZ-0IDUKDN-29" value="Search the next space in cluster chain of &#39;@1&#39;" style="rounded=1;whiteSpace=wrap;html=1;fontFamily=Courier New;fontSize=13;" vertex="1" parent="1">
          <mxGeometry x="240" y="520" width="200" height="60" as="geometry" />
        </mxCell>
        <mxCell id="WDUlDcDjNbLZ-0IDUKDN-31" value="ELSE" style="text;html=1;align=left;verticalAlign=middle;whiteSpace=wrap;rounded=0;fontFamily=Courier New;fontSize=14;" vertex="1" parent="1">
          <mxGeometry x="340" y="480" width="50" height="30" as="geometry" />
        </mxCell>
        <mxCell id="WDUlDcDjNbLZ-0IDUKDN-36" style="edgeStyle=orthogonalEdgeStyle;rounded=0;orthogonalLoop=1;jettySize=auto;html=1;exitX=0.5;exitY=1;exitDx=0;exitDy=0;entryX=0.5;entryY=0;entryDx=0;entryDy=0;" edge="1" parent="1" source="WDUlDcDjNbLZ-0IDUKDN-32" target="WDUlDcDjNbLZ-0IDUKDN-37">
          <mxGeometry relative="1" as="geometry">
            <mxPoint x="110" y="740" as="targetPoint" />
          </mxGeometry>
        </mxCell>
        <mxCell id="WDUlDcDjNbLZ-0IDUKDN-32" value="Fill the entry!&lt;div&gt;Remain the cluster as 0&lt;/div&gt;" style="rounded=1;whiteSpace=wrap;html=1;fontFamily=Courier New;fontSize=13;" vertex="1" parent="1">
          <mxGeometry x="10" y="640" width="200" height="60" as="geometry" />
        </mxCell>
        <mxCell id="WDUlDcDjNbLZ-0IDUKDN-34" value="IF can find a next space" style="text;html=1;align=center;verticalAlign=middle;whiteSpace=wrap;rounded=0;fontFamily=Courier New;fontSize=14;" vertex="1" parent="1">
          <mxGeometry x="100" y="515" width="130" height="30" as="geometry" />
        </mxCell>
        <mxCell id="WDUlDcDjNbLZ-0IDUKDN-37" value="&lt;div&gt;&lt;font&gt;Return&lt;/font&gt;&lt;/div&gt;&lt;span&gt;as success&lt;/span&gt;" style="shape=parallelogram;perimeter=parallelogramPerimeter;whiteSpace=wrap;html=1;fixedSize=1;fontFamily=Courier New;fontSize=14;" vertex="1" parent="1">
          <mxGeometry y="750" width="220" height="80" as="geometry" />
        </mxCell>
        <mxCell id="WDUlDcDjNbLZ-0IDUKDN-42" style="edgeStyle=orthogonalEdgeStyle;rounded=0;orthogonalLoop=1;jettySize=auto;html=1;exitX=1;exitY=0.5;exitDx=0;exitDy=0;entryX=0.5;entryY=0;entryDx=0;entryDy=0;" edge="1" parent="1" source="WDUlDcDjNbLZ-0IDUKDN-38" target="WDUlDcDjNbLZ-0IDUKDN-41">
          <mxGeometry relative="1" as="geometry" />
        </mxCell>
        <mxCell id="WDUlDcDjNbLZ-0IDUKDN-47" style="edgeStyle=orthogonalEdgeStyle;rounded=0;orthogonalLoop=1;jettySize=auto;html=1;exitX=0;exitY=0.5;exitDx=0;exitDy=0;entryX=1;entryY=0.5;entryDx=0;entryDy=0;" edge="1" parent="1" source="WDUlDcDjNbLZ-0IDUKDN-38" target="WDUlDcDjNbLZ-0IDUKDN-32">
          <mxGeometry relative="1" as="geometry" />
        </mxCell>
        <mxCell id="WDUlDcDjNbLZ-0IDUKDN-38" value="Alloc new cluster for the cluster chain for &#39;@1&#39;" style="rounded=1;whiteSpace=wrap;html=1;fontFamily=Courier New;fontSize=13;" vertex="1" parent="1">
          <mxGeometry x="470" y="640" width="200" height="60" as="geometry" />
        </mxCell>
        <mxCell id="WDUlDcDjNbLZ-0IDUKDN-40" value="ELSE" style="text;html=1;align=center;verticalAlign=middle;whiteSpace=wrap;rounded=0;fontFamily=Courier New;fontSize=14;" vertex="1" parent="1">
          <mxGeometry x="440" y="525" width="130" height="30" as="geometry" />
        </mxCell>
        <mxCell id="WDUlDcDjNbLZ-0IDUKDN-41" value="&lt;div&gt;&lt;font&gt;Return&lt;/font&gt;&lt;/div&gt;&lt;font&gt;E_NoSpace&lt;/font&gt;" style="shape=parallelogram;perimeter=parallelogramPerimeter;whiteSpace=wrap;html=1;fixedSize=1;fontFamily=Courier New;fontSize=14;" vertex="1" parent="1">
          <mxGeometry x="630" y="750" width="220" height="80" as="geometry" />
        </mxCell>
        <mxCell id="WDUlDcDjNbLZ-0IDUKDN-43" value="IF none available" style="text;html=1;align=left;verticalAlign=middle;whiteSpace=wrap;rounded=0;fontFamily=Courier New;fontSize=14;" vertex="1" parent="1">
          <mxGeometry x="745" y="680" width="100" height="30" as="geometry" />
        </mxCell>
        <mxCell id="WDUlDcDjNbLZ-0IDUKDN-48" value="ELSE" style="text;html=1;align=right;verticalAlign=middle;whiteSpace=wrap;rounded=0;fontFamily=Courier New;fontSize=14;" vertex="1" parent="1">
          <mxGeometry x="330" y="645" width="130" height="30" as="geometry" />
        </mxCell>
      </root>
    </mxGraphModel>
  </diagram>
</mxfile>
